<?xml version="1.0" encoding="UTF-8" standalone="no"?>
<!-- Created with Inkscape (http://www.inkscape.org/) -->

<svg
   width="93.416023mm"
   height="34.84375mm"
   viewBox="0 0 93.416023 34.84375"
   version="1.1"
   id="svg28830"
   inkscape:version="1.1 (c68e22c387, 2021-05-23)"
   sodipodi:docname="splice_plain.svg"
   xmlns:inkscape="http://www.inkscape.org/namespaces/inkscape"
   xmlns:sodipodi="http://sodipodi.sourceforge.net/DTD/sodipodi-0.dtd"
   xmlns="http://www.w3.org/2000/svg"
   xmlns:svg="http://www.w3.org/2000/svg">
  <sodipodi:namedview
     id="namedview28832"
     pagecolor="#ffffff"
     bordercolor="#666666"
     borderopacity="1.0"
     inkscape:pageshadow="2"
     inkscape:pageopacity="0.0"
     inkscape:pagecheckerboard="0"
     inkscape:document-units="mm"
     showgrid="false"
     fit-margin-top="0"
     fit-margin-left="0"
     fit-margin-right="0"
     fit-margin-bottom="0"
     inkscape:zoom="0.77771465"
     inkscape:cx="-87.435668"
     inkscape:cy="162.01315"
     inkscape:window-width="1716"
     inkscape:window-height="1389"
     inkscape:window-x="1720"
     inkscape:window-y="24"
     inkscape:window-maximized="1"
     inkscape:current-layer="layer1" />
  <defs
     id="defs28827" />
  <g
     inkscape:label="Layer 1"
     inkscape:groupmode="layer"
     id="layer1"
     transform="translate(-11.80745,-105.39256)">
    <path
       id="path83-3-6-2-9-8-9-9"
       style="color:#000000;display:inline;fill:#000000;stroke-linecap:round;stroke-linejoin:round;-inkscape-stroke:none"
       d="m 84.7098,123.53513 a 1.96612,1.96612 0 0 0 -1.9668,1.96485 v 12.76953 a 1.96612,1.96612 0 0 0 1.9668,1.9668 1.96612,1.96612 0 0 0 1.96679,-1.9668 v -12.76953 a 1.96612,1.96612 0 0 0 -1.96679,-1.96485 z m -70.93555,0 a 1.96612,1.96612 0 0 0 -1.9668,1.96485 v 12.76953 a 1.96612,1.96612 0 0 0 1.9668,1.9668 1.96612,1.96612 0 0 0 1.9668,-1.9668 v -12.76953 a 1.96612,1.96612 0 0 0 -1.9668,-1.96485 z m 52.56055,-3.4082 a 1.96612,1.96612 0 0 0 -1.9668,1.96484 v 16.17774 a 1.96612,1.96612 0 0 0 1.9668,1.9668 1.96612,1.96612 0 0 0 1.96679,-1.9668 V 122.09177 A 1.96612,1.96612 0 0 0 66.3348,120.12693 Z M 42.53402,105.39256 a 1.96612,1.96612 0 0 0 -1.9668,1.96484 v 16.17773 a 1.96612,1.96612 0 0 0 1.9668,1.9668 1.96612,1.96612 0 0 0 1.96679,-1.9668 V 107.3574 a 1.96612,1.96612 0 0 0 -1.96679,-1.96484 z m 60.72265,25.96093 a 1.96612,1.96612 0 0 0 -1.96484,1.9668 v 4.94922 a 1.96612,1.96612 0 0 0 1.96484,1.9668 1.96612,1.96612 0 0 0 1.9668,-1.9668 v -4.94922 a 1.96612,1.96612 0 0 0 -1.9668,-1.9668 z m 0,-12.95508 a 1.96612,1.96612 0 0 0 -1.96484,1.96485 v 4.95117 a 1.96612,1.96612 0 0 0 1.96484,1.9668 1.96612,1.96612 0 0 0 1.9668,-1.9668 v -4.95117 a 1.96612,1.96612 0 0 0 -1.9668,-1.96485 z m 0,-13.00585 a 1.96612,1.96612 0 0 0 -1.96484,1.96484 v 4.95117 a 1.96612,1.96612 0 0 0 1.96484,1.9668 1.96612,1.96612 0 0 0 1.9668,-1.9668 v -4.95117 a 1.96612,1.96612 0 0 0 -1.9668,-1.96484 z m -36.9707,0 a 1.96612,1.96612 0 0 0 -1.9668,1.96484 v 4.95117 a 1.96612,1.96612 0 0 0 1.9668,1.9668 1.96612,1.96612 0 0 0 1.96679,-1.9668 v -4.95117 a 1.96612,1.96612 0 0 0 -1.96679,-1.96484 z m 18.42383,0 a 1.96612,1.96612 0 0 0 -1.9668,1.96484 v 12.76953 a 1.96612,1.96612 0 0 0 1.9668,1.9668 1.96612,1.96612 0 0 0 1.96679,-1.9668 V 107.3574 a 1.96612,1.96612 0 0 0 -1.96679,-1.96484 z m -59.30469,0 a 1.96612,1.96612 0 0 0 -1.96485,1.96484 v 12.76953 a 1.96612,1.96612 0 0 0 1.96485,1.9668 1.96612,1.96612 0 0 0 1.9668,-1.9668 V 107.3574 a 1.96612,1.96612 0 0 0 -1.9668,-1.96484 z m 11.35156,0 a 1.96612,1.96612 0 0 0 -1.96484,1.96484 v 30.67773 a 1.96612,1.96612 0 0 0 1.96484,1.9668 1.96612,1.96612 0 0 0 1.9668,-1.9668 V 107.3574 a 1.96612,1.96612 0 0 0 -1.9668,-1.96484 z m 42.08203,0.23437 a 1.96612,1.96612 0 0 0 -1.96484,1.9668 v 30.67578 a 1.96612,1.96612 0 0 0 1.96484,1.9668 1.96612,1.96612 0 0 0 1.9668,-1.9668 v -30.67578 a 1.96612,1.96612 0 0 0 -1.9668,-1.9668 z m 18.80664,0 a 1.96612,1.96612 0 0 0 -1.96679,1.9668 v 30.67578 a 1.96612,1.96612 0 0 0 1.96679,1.9668 1.96612,1.96612 0 0 0 1.9668,-1.9668 v -30.67578 a 1.96612,1.96612 0 0 0 -1.9668,-1.9668 z m -43.14843,0 a 1.96612,1.96612 0 0 0 -1.9668,1.9668 v 30.67578 a 1.96612,1.96612 0 0 0 1.9668,1.9668 1.96612,1.96612 0 0 0 1.96484,-1.9668 v -30.67578 a 1.96612,1.96612 0 0 0 -1.96484,-1.9668 z m -34.72071,0 a 1.96612,1.96612 0 0 0 -1.96484,1.9668 v 30.67578 a 1.96612,1.96612 0 0 0 1.96484,1.9668 1.96612,1.96612 0 0 0 1.9668,-1.9668 v -30.67578 a 1.96612,1.96612 0 0 0 -1.9668,-1.9668 z" />
  </g>
</svg>
