<?xml version="1.0" encoding="UTF-8" standalone="no"?>
<!-- Created with Inkscape (http://www.inkscape.org/) -->

<svg
   width="105.02892mm"
   height="41.725979mm"
   viewBox="0 0 105.02892 41.725979"
   version="1.1"
   id="svg28880"
   inkscape:version="1.1 (c68e22c387, 2021-05-23)"
   sodipodi:docname="splice_box.svg"
   xmlns:inkscape="http://www.inkscape.org/namespaces/inkscape"
   xmlns:sodipodi="http://sodipodi.sourceforge.net/DTD/sodipodi-0.dtd"
   xmlns="http://www.w3.org/2000/svg"
   xmlns:svg="http://www.w3.org/2000/svg">
  <sodipodi:namedview
     id="namedview28882"
     pagecolor="#ffffff"
     bordercolor="#666666"
     borderopacity="1.0"
     inkscape:pageshadow="2"
     inkscape:pageopacity="0.0"
     inkscape:pagecheckerboard="0"
     inkscape:document-units="mm"
     showgrid="false"
     fit-margin-top="0"
     fit-margin-left="0"
     fit-margin-right="0"
     fit-margin-bottom="0"
     inkscape:zoom="0.77771465"
     inkscape:cx="-380.60232"
     inkscape:cy="10.286549"
     inkscape:window-width="1716"
     inkscape:window-height="1389"
     inkscape:window-x="1720"
     inkscape:window-y="24"
     inkscape:window-maximized="1"
     inkscape:current-layer="layer1" />
  <defs
     id="defs28877" />
  <g
     inkscape:label="Layer 1"
     inkscape:groupmode="layer"
     id="layer1"
     transform="translate(-89.351516,-145.49783)">
    <path
       id="rect1971-9-0-5"
       style="display:inline;fill:#ffffff;stroke:#000000;stroke-width:1.613;stroke-linecap:round;stroke-linejoin:round"
       d="m 90.158016,146.30433 h 60.334144 l -13.03379,40.11298 H 90.158016 Z"
       sodipodi:nodetypes="ccccc" />
    <path
       id="rect1971-9-0-1"
       style="display:inline;fill:#000000;fill-opacity:1;stroke:none;stroke-width:1.613;stroke-linecap:round;stroke-linejoin:round;paint-order:stroke fill markers"
       d="m 150.49216,146.30433 -0.69608,2.14303 a 1.96612,1.96612 0 0 1 0.16691,-0.0263 1.96612,1.96612 0 0 1 1.96681,1.96473 v 4.95112 a 1.96612,1.96612 0 0 1 -1.96681,1.96681 1.96612,1.96612 0 0 1 -1.9668,-1.96681 v -1.35082 l -7.8574,24.18199 v 3.12952 a 1.96612,1.96612 0 0 1 -1.64693,1.93839 l -1.03353,3.1812 h 56.92211 v -40.1128 z m 17.89451,2.11667 a 1.96612,1.96612 0 0 1 1.96681,1.96473 v 12.76925 a 1.96612,1.96612 0 0 1 -1.96681,1.96682 1.96612,1.96612 0 0 1 -1.9668,-1.96682 v -12.76925 a 1.96612,1.96612 0 0 1 1.9668,-1.96473 z m 18.54667,0 a 1.96612,1.96612 0 0 1 1.96681,1.96473 v 4.95113 a 1.96612,1.96612 0 0 1 -1.96681,1.96681 1.96612,1.96612 0 0 1 -1.96473,-1.96681 v -4.95113 a 1.96612,1.96612 0 0 1 1.96473,-1.96473 z m -24.41762,0.2341 a 1.96612,1.96612 0 0 1 1.9668,1.96681 v 30.67564 a 1.96612,1.96612 0 0 1 -1.9668,1.96681 1.96612,1.96612 0 0 1 -1.96526,-1.96681 v -30.67564 a 1.96612,1.96612 0 0 1 1.96526,-1.96681 z m 18.8066,0 a 1.96612,1.96612 0 0 1 1.9668,1.96681 v 30.67564 a 1.96612,1.96612 0 0 1 -1.9668,1.96681 1.96612,1.96612 0 0 1 -1.96681,-1.96681 v -30.67564 a 1.96612,1.96612 0 0 1 1.96681,-1.96681 z m 5.61102,12.77132 a 1.96612,1.96612 0 0 1 1.96681,1.96525 v 4.95112 a 1.96612,1.96612 0 0 1 -1.96681,1.9668 1.96612,1.96612 0 0 1 -1.96473,-1.9668 v -4.95112 a 1.96612,1.96612 0 0 1 1.96473,-1.96525 z m -36.92177,1.72856 a 1.96612,1.96612 0 0 1 1.9668,1.96475 v 16.17782 a 1.96612,1.96612 0 0 1 -1.9668,1.96681 1.96612,1.96612 0 0 1 -1.96681,-1.96681 v -16.17782 a 1.96612,1.96612 0 0 1 1.96681,-1.96475 z m 18.3751,3.40858 a 1.96612,1.96612 0 0 1 1.96681,1.96475 v 12.76924 a 1.96612,1.96612 0 0 1 -1.96681,1.96681 1.96612,1.96612 0 0 1 -1.9668,-1.96681 v -12.76924 a 1.96612,1.96612 0 0 1 1.9668,-1.96475 z m 18.54667,7.81813 a 1.96612,1.96612 0 0 1 1.96681,1.96681 v 4.94905 a 1.96612,1.96612 0 0 1 -1.96681,1.96681 1.96612,1.96612 0 0 1 -1.96473,-1.96681 v -4.94905 a 1.96612,1.96612 0 0 1 1.96473,-1.96681 z" />
    <path
       id="path83-3-6-2-9-8-9"
       style="color:#000000;display:inline;fill:#000000;stroke:none;stroke-width:0.7;stroke-linecap:round;stroke-linejoin:round;stroke-miterlimit:4;stroke-dasharray:none;stroke-opacity:1;paint-order:stroke fill markers"
       d="m 98.448263,166.46352 c -1.08563,-3.8e-4 -1.9661,0.87922 -1.9668,1.96486 v 12.76953 c -3.8e-4,1.08639 0.88041,1.96718 1.9668,1.9668 1.08639,3.8e-4 1.967177,-0.88041 1.966797,-1.9668 v -12.76953 c -7e-4,-1.08564 -0.881167,-1.96523 -1.966797,-1.96486 z m 28.759767,-18.14257 c -1.08562,-3.8e-4 -1.96609,0.87922 -1.9668,1.96484 v 16.17773 c -3.8e-4,1.08639 0.88041,1.96719 1.9668,1.9668 1.08639,3.8e-4 1.96717,-0.88041 1.96679,-1.9668 v -16.17773 c -7.1e-4,-1.08562 -0.88117,-1.96521 -1.96679,-1.96484 z m -17.12891,0 c -1.08486,7e-4 -1.96414,0.87998 -1.96485,1.96484 v 12.76953 c -3.8e-4,1.08564 0.87922,1.96611 1.96485,1.96681 1.08639,3.8e-4 1.96718,-0.88042 1.9668,-1.96681 v -12.76953 c -7.1e-4,-1.08562 -0.88118,-1.96521 -1.9668,-1.96484 z m 11.35156,0 c -1.08486,7.1e-4 -1.96413,0.87998 -1.96484,1.96484 v 30.67773 c -3.8e-4,1.08562 0.87922,1.96609 1.96484,1.9668 1.08639,3.9e-4 1.96718,-0.88041 1.9668,-1.9668 v -30.67773 c -7.1e-4,-1.08562 -0.88118,-1.96521 -1.9668,-1.96484 z m 17.74024,0.23437 c -1.08639,-3.8e-4 -1.96718,0.88042 -1.9668,1.96681 v 30.67578 c -3.8e-4,1.08639 0.88041,1.96718 1.9668,1.9668 1.08562,-7.1e-4 1.96522,-0.88118 1.96484,-1.9668 v -30.67578 c 3.8e-4,-1.08563 -0.87922,-1.9661 -1.96484,-1.96681 z m -34.72071,0 c -1.08562,7.1e-4 -1.96522,0.88118 -1.96484,1.96681 v 30.67578 c -3.8e-4,1.08562 0.87922,1.96609 1.96484,1.9668 1.08639,3.8e-4 1.96718,-0.88041 1.9668,-1.9668 v -30.67578 c 3.8e-4,-1.08639 -0.88041,-1.96719 -1.9668,-1.96681 z"
       sodipodi:nodetypes="cccccccccccccccccccccccccccccccccccccccccc" />
  </g>
</svg>
